<?xml version="1.0" encoding="UTF-8"?>
<svg id="Layer_1" xmlns="http://www.w3.org/2000/svg" xmlns:xlink="http://www.w3.org/1999/xlink" xmlns:svg="http://www.w3.org/2000/svg" xmlns:sodipodi="http://sodipodi.sourceforge.net/DTD/sodipodi-0.dtd" xmlns:ns="http://ns.adobe.com/SaveForWeb/1.0/" xmlns:inkscape="http://www.inkscape.org/namespaces/inkscape" baseProfile="tiny" version="1.2" viewBox="0 0 999.5 201.9">
  <!-- Generator: Adobe Illustrator 29.1.0, SVG Export Plug-In . SVG Version: 2.1.0 Build 142)  -->
  <sodipodi:namedview id="namedview10" bordercolor="#000000" borderopacity="0.25" inkscape:current-layer="Layer_1" inkscape:cx="456.90356" inkscape:cy="159.14618" inkscape:deskcolor="#d1d1d1" inkscape:pagecheckerboard="0" inkscape:pageopacity="0.0" inkscape:showpageshadow="2" inkscape:window-height="551" inkscape:window-maximized="0" inkscape:window-width="1104" inkscape:window-x="0" inkscape:window-y="37" inkscape:zoom="0.38957893" pagecolor="#ffffff"/>
  <path id="path1" d="M164.6,129s-3.3-2.1-3.3-4.9v-48.5c0-2,1.9-3.3,2.8-4.2.7-.5,1.3-1.1,2-1.7,1.8-1.8,3-3.9,3.8-6.1,0-.3.2-.6.3-.8,0,0,0-.1,0-.2,1.3-4.4.8-9.6-2.2-14.7-.9-1.6-2.3-2.9-3.8-3.8-11.5-6.9-23.4-.6-26.1,9.5h0c-.6,2.2-.7,4.3-.4,6.4s.8,3-.8,5.5l-30.9,34.2c-2.1,2.3-5.7,2.3-7.8,0l-30.5-33.8c-1.4-1.2-1.1-5.8-1.1-5.8.2-2.1,0-4.2-.4-6.2h0c-2.7-10.2-14.5-16.6-26.1-9.6-1.6.9-2.8,2.3-3.8,3.8-3,5.1-3.5,10.3-2.2,14.7v.2c0,.3.2.6.3.8.8,2.2,2.1,4.3,3.8,6.1.6.6,1.3,1.2,2,1.7.9,1,2.8,2.1,2.8,4.2v48.5c0,3-3.3,4.9-3.3,4.9-6.1,4.9-8.7,14-3.3,22.9.9,1.6,2.3,2.9,3.8,3.8,13.1,7.8,26.5-1.4,26.5-13.8s-2.5-10-6.3-13.1c-3.8-3.1-3.3-2.1-3.3-4.9v-48.6s.2.1.3.2l37.8,41.8c4,4,7.9,4.5,11.9,1.6,4-2.8,3.5-3.3,3.8-3.6l35.8-39.9s.3-.2.4,0v48.5c0,3-3.3,4.9-3.3,4.9-6.2,4.9-8.8,14-3.4,23,.9,1.6,2.3,2.9,3.8,3.8,13.1,7.8,26.5-1.4,26.5-13.8s-2.5-9.9-6.3-13h.1Z" fill="#fff"/>
  <g id="g10">
    <path id="path2" d="M247.8,57.5h20l20,51.3,7.6,19.9h.1c1.6-4.5,4.1-11.1,7.4-19.9l20-51.3h20.2v89.4h-14.2v-68.6l-6.3,16.2-12.7,31.3-8.1,21.1h-12.8l-8.3-21.1-12.7-31.3c-2.3-5.7-4.3-11.2-6.2-16.2v68.6h-14.2V57.5Z"/>
    <path id="path3" d="M371.2,144.6c-5.1-2.8-8.9-6.9-11.6-12.1-2.7-5.3-4-11.4-4-18.5s1.3-12.6,4.1-17.8,6.6-9.2,11.5-12.1c4.9-2.9,10.5-4.3,16.8-4.3s12,1.3,16.9,3.9c4.9,2.6,8.8,6.3,11.5,11,2.8,4.8,4.1,10.1,4.1,16.2s0,3.7,0,5.1-.1,2.4-.3,3.1h-49.7c.4,5.4,2.2,9.7,5.4,12.9,3.3,3.2,7.7,4.8,13,4.8s7-.7,9.7-2.3,4.6-3.8,5.9-6.6h15c-1.8,6.7-5.4,11.8-10.8,15.6s-12.1,5.6-20,5.6-12.5-1.4-17.6-4.2h0ZM405.4,108c-.1-5-1.8-8.9-4.9-11.9-3.1-3-7.3-4.5-12.4-4.5s-9,1.4-12.1,4.3c-3.1,2.9-4.9,6.9-5.4,12.1h34.9Z"/>
    <path id="path4" d="M431.4,81.5h13.9v7.9c1.7-3.1,4.3-5.4,7.8-7.2,3.5-1.7,7.5-2.6,12-2.6s8.5.9,11.8,2.8c3.4,1.8,6,4.5,7.8,7.9,2.4-3.5,5.4-6.1,9.1-7.9,3.6-1.8,7.9-2.8,12.6-2.8,7.7,0,13.6,2.3,17.7,6.9,4.1,4.5,6.2,11.1,6.2,19.7v40.7h-14.6v-38.3c0-5.1-1.1-8.9-3.3-11.5-2.2-2.6-5.4-3.9-9.8-3.9s-8,1.4-10.7,4.3-3.9,6.8-3.9,11.8v37.7h-14.6v-38.3c0-5.1-1.1-8.9-3.3-11.5-2.2-2.6-5.4-3.9-9.8-3.9s-8,1.4-10.6,4.3c-2.6,2.9-3.9,6.8-3.9,11.8v37.7h-14.6v-65.3Z"/>
    <path id="path5" d="M567,146c-3.9-1.8-6.9-4.4-8.9-7.8v8.6h-13.9V57.5h14.6v32.1c2-3.2,4.9-5.7,8.6-7.4,3.7-1.7,7.6-2.5,11.5-2.5,6.3,0,11.8,1.5,16.5,4.4s8.2,7,10.7,12.1c2.5,5.2,3.6,11.2,3.6,18s-1.3,12.7-3.7,18c-2.5,5.2-6,9.3-10.7,12.2-4.6,2.9-10,4.4-16.1,4.4s-8.3-.9-12.1-2.8ZM563.1,129.6c3.4,3.8,7.7,5.7,13.2,5.7s10.3-1.9,13.5-5.6c3.3-3.7,4.9-8.9,4.9-15.5s-1.6-11.7-4.9-15.4c-3.3-3.6-7.7-5.5-13.5-5.5s-9.8,1.9-13.2,5.6-5.1,8.9-5.1,15.3,1.7,11.6,5.1,15.4Z"/>
    <path id="path6" d="M620.5,81.5h13.9v10c3.4-7.6,9.2-11.4,17.4-11.4s3.3.2,4.5.7v14.6c-1.5-.4-3.3-.5-5.2-.5-5.2,0-9.2,1.8-12,5.3-2.8,3.6-4.1,8.6-4.1,15v31.7h-14.6v-65.3h0Z"/>
    <path id="path7" d="M665.6,70.4c-1.7-1.7-2.5-3.7-2.5-6.1s.8-4.2,2.5-6c1.7-1.7,3.7-2.5,6.1-2.5s4.4.8,6,2.5c1.6,1.7,2.5,3.6,2.5,6s-.8,4.4-2.5,6.1-3.6,2.5-6,2.5-4.4-.8-6.1-2.5ZM664.4,81.5h14.6v65.3h-14.6v-65.3Z"/>
    <path id="path8" d="M696.5,143.4c-4.2-3.6-6.3-8.3-6.3-14.5s1.8-10.1,5.4-13.4,8.3-5.5,14.3-6.6l15.3-2.9c2.7-.5,4.7-1.2,5.9-2.1,1.2-.9,1.9-2.3,1.9-4.2s-1-4.5-3.2-6c-2.1-1.4-5.2-2.2-9.2-2.2s-6.7.7-9.2,2.2-3.9,3.6-4.4,6.6h-15c.4-6.3,3.4-11.2,8.7-15,5.4-3.7,12-5.7,20-5.7s15.6,1.9,20.1,5.7,6.8,8.8,6.8,15v30.7c0,2.8,1.1,4.2,3.4,4.2s2.8-.4,3.9-1v11.3c-2.5,1.8-5.6,2.7-9.5,2.7s-5.4-.7-7.4-2.1c-2-1.4-3.5-3.4-4.3-6-5.1,5.8-12,8.7-20.6,8.7s-12.4-1.8-16.6-5.4ZM708.2,134.6c2,1.4,4.8,2.2,8.1,2.2,4.8,0,8.8-1.3,11.9-3.7s4.7-5.7,4.7-9.8v-8.9c-1,1.1-3.9,2.2-8.6,3.2l-9.6,1.9c-6.3,1.1-9.5,4.1-9.5,9s1,4.8,3.1,6.2h0Z"/>
    <path id="path9" d="M807.9,143c-6.9-3.9-12.2-9.3-16.1-16.4-3.9-7.1-5.8-15.2-5.8-24.4s1.9-17.5,5.8-24.5c3.9-7.1,9.2-12.5,16.1-16.4,6.9-3.9,14.5-5.7,23.1-5.7s14.2,1.5,20.4,4.5c6.2,3,11.1,7,14.7,12.1,3.6,5.1,5.7,10.7,6,16.8h-15.7c-1.1-5.8-3.9-10.4-8.6-13.8s-10.3-5-17.1-5-10.4,1.3-14.9,3.7-7.9,6.2-10.4,10.9c-2.5,4.8-3.8,10.6-3.8,17.4s1.3,12.5,3.8,17.3c2.5,4.8,6,8.4,10.4,10.9,4.5,2.5,9.4,3.7,14.9,3.7s12.4-1.7,17-5.1,7.5-8,8.6-13.7h15.7c-.4,6.1-2.5,11.7-6.1,16.8-3.6,5.1-8.5,9.1-14.7,12.1-6.1,3-13,4.5-20.5,4.5s-16.2-1.9-23.1-5.7h0Z"/>
    <path id="path10" d="M886.6,57.5h56.3v13.9h-41.1v22.6h38.1v13.9h-38.1v25.3h41.1v13.9h-56.3V57.5Z"/>
  </g>
  <image width="172" height="172" transform="translate(22 15.9)" xlink:href="membria-logo-long-1.png"/>
  <path d="M163.9,126.5s-2.9-1.9-2.9-4.4v-43.5c0-1.8,1.7-2.9,2.5-3.8.6-.4,1.2-1,1.8-1.5,1.6-1.6,2.7-3.5,3.4-5.5,0-.3.2-.5.3-.8,0,0,0-.1,0-.2,1.1-3.9.8-8.6-2-13.2-.8-1.4-2-2.6-3.4-3.4-10.4-6.2-21-.6-23.4,8.5h0c-.5,2-.6,3.9-.4,5.7s.8,2.7-.8,5l-27.8,30.7c-1.8,2-5.1,2-7,0l-27.4-30.3c-1.3-1.1-1-5.2-1-5.2.2-1.8,0-3.7-.4-5.6h0c-2.4-9.1-13-14.9-23.4-8.6-1.4.8-2.5,2-3.4,3.4-2.7,4.6-3.2,9.2-2,13.2,0,0,0,.1,0,.2,0,.3.2.5.3.8.7,2,1.8,3.9,3.4,5.5.6.6,1.1,1.1,1.8,1.5.8.9,2.5,1.9,2.5,3.8v43.5c0,2.7-2.9,4.4-2.9,4.4-5.5,4.4-7.8,12.6-3,20.6.8,1.4,2,2.6,3.4,3.4,11.8,7,23.8-1.3,23.8-12.4s-2.2-9-5.7-11.8-3-1.9-3-4.4v-43.5s0-.2,0-.2c0,0,.2.1.3.2l33.9,37.5c3.6,3.6,7.1,4,10.7,1.5s3.1-3,3.4-3.2l32.1-35.8s.3-.2.4,0v43.5c0,2.7-3,4.4-3,4.4-5.5,4.4-7.9,12.6-3,20.6.8,1.4,2,2.6,3.4,3.4,11.8,7,23.8-1.3,23.8-12.4s-2.3-8.9-5.7-11.6h0Z" fill="#fff"/>
  <metadata id="metadata10">
    <ns:sfw>
      <ns:slices/>
      <ns:sliceSourceBounds x="3.2" y="2.7" width="1271.11" height="269.2" bottomLeftOrigin="true"/>
    </ns:sfw>
    <sfw xmlns="http://ns.adobe.com/SaveForWeb/1.0/">
      <slices/>
      <sliceSourceBounds x="22.5" y="14.52" width="920.41" height="171.04" bottomLeftOrigin="true"/>
    </sfw>
  </metadata>
</svg>
