<?xml version="1.0" encoding="UTF-8"?>
<svg id="Layer_1" xmlns="http://www.w3.org/2000/svg" xmlns:xlink="http://www.w3.org/1999/xlink" xmlns:svg="http://www.w3.org/2000/svg" xmlns:sodipodi="http://sodipodi.sourceforge.net/DTD/sodipodi-0.dtd" xmlns:ns="http://ns.adobe.com/SaveForWeb/1.0/" xmlns:inkscape="http://www.inkscape.org/namespaces/inkscape" version="1.1" viewBox="0 0 999.5 201.9">
  <!-- Generator: Adobe Illustrator 29.1.0, SVG Export Plug-In . SVG Version: 2.1.0 Build 142)  -->
  <defs>
    <linearGradient id="linear-gradient" x1="2" y1="635.9" x2="201" y2="635.9" gradientTransform="translate(0 -534.3)" gradientUnits="userSpaceOnUse">
      <stop offset=".2" stop-color="#2886ff"/>
      <stop offset=".5" stop-color="#8b8cbe"/>
      <stop offset=".7" stop-color="#ff9472"/>
    </linearGradient>
  </defs>
  <sodipodi:namedview id="namedview10" bordercolor="#000000" borderopacity="0.25" inkscape:current-layer="Layer_1" inkscape:cx="456.90356" inkscape:cy="159.14618" inkscape:deskcolor="#d1d1d1" inkscape:pagecheckerboard="0" inkscape:pageopacity="0.0" inkscape:showpageshadow="2" inkscape:window-height="551" inkscape:window-maximized="0" inkscape:window-width="1104" inkscape:window-x="0" inkscape:window-y="37" inkscape:zoom="0.38957893" pagecolor="#ffffff"/>
  <path id="path1" d="M164.6,129s-3.3-2.1-3.3-4.9v-48.5c0-2,1.9-3.3,2.8-4.2.7-.5,1.3-1.1,2-1.7,1.8-1.8,3-3.9,3.8-6.1,0-.3.2-.6.3-.8v-.2c1.3-4.4.8-9.6-2.2-14.7-.9-1.6-2.3-2.9-3.8-3.8-11.5-6.9-23.4-.6-26.1,9.5h0c-.6,2.2-.7,4.3-.4,6.4s.8,3-.8,5.5l-30.9,34.2c-2.1,2.3-5.7,2.3-7.8,0l-30.5-33.8c-1.4-1.2-1.1-5.8-1.1-5.8.2-2.1,0-4.2-.4-6.2h0c-2.7-10.2-14.5-16.6-26.1-9.6-1.6.9-2.8,2.3-3.8,3.8-3,5.1-3.5,10.3-2.2,14.7v.2c0,.3.2.6.3.8.8,2.2,2.1,4.3,3.8,6.1.6.6,1.3,1.2,2,1.7.9,1,2.8,2.1,2.8,4.2v48.5c0,3-3.3,4.9-3.3,4.9-6.1,4.9-8.7,14-3.3,22.9.9,1.6,2.3,2.9,3.8,3.8,13.1,7.8,26.5-1.4,26.5-13.8s-2.5-10-6.3-13.1c-3.8-3.1-3.3-2.1-3.3-4.9v-48.6s.2,0,.3.2l37.8,41.8c4,4,7.9,4.5,11.9,1.6,4-2.8,3.5-3.3,3.8-3.6l35.8-39.9s.3-.2.4,0v48.5c0,3-3.3,4.9-3.3,4.9-6.2,4.9-8.8,14-3.4,23,.9,1.6,2.3,2.9,3.8,3.8,13.1,7.8,26.5-1.4,26.5-13.8s-2.5-9.9-6.3-13h.2Z" fill="#fff"/>
  <g id="g10">
    <path id="path2" d="M250.8,55.6h21.4l21.4,54.9,8.1,21.3h.1c1.7-4.8,4.4-11.9,7.9-21.3l21.4-54.9h21.6v95.6h-15.2v-73.3l-6.7,17.3-13.6,33.5-8.7,22.6h-13.7l-8.9-22.6-13.6-33.5c-2.5-6.1-4.6-12-6.6-17.3v73.3h-15.2V55.6h.2Z" fill="#fff"/>
    <path id="path3" d="M382.8,148.8c-5.5-3-9.5-7.4-12.4-12.9-2.9-5.7-4.3-12.2-4.3-19.8s1.4-13.5,4.4-19,7.1-9.8,12.3-12.9,11.2-4.6,18-4.6,12.8,1.4,18.1,4.2,9.4,6.7,12.3,11.8c3,5.1,4.4,10.8,4.4,17.3s0,4,0,5.5-.1,2.6-.3,3.3h-53.1c.4,5.8,2.4,10.4,5.8,13.8,3.5,3.4,8.2,5.1,13.9,5.1s7.5-.7,10.4-2.5,4.9-4.1,6.3-7.1h16c-1.9,7.2-5.8,12.6-11.5,16.7s-12.9,6-21.4,6-13.4-1.5-18.8-4.5h0v-.3ZM419.3,109.6c-.1-5.3-1.9-9.5-5.2-12.7s-7.8-4.8-13.3-4.8-9.6,1.5-12.9,4.6-5.2,7.4-5.8,12.9h37.3-.1Z" fill="#fff"/>
    <path id="path4" d="M447.1,81.3h14.9v8.4c1.8-3.3,4.6-5.8,8.3-7.7,3.7-1.8,8-2.8,12.8-2.8s9.1,1,12.6,3c3.6,1.9,6.4,4.8,8.3,8.4,2.6-3.7,5.8-6.5,9.7-8.4,3.8-1.9,8.4-3,13.5-3,8.2,0,14.5,2.5,18.9,7.4,4.4,4.8,6.6,11.9,6.6,21.1v43.5h-15.6v-41c0-5.5-1.2-9.5-3.5-12.3s-5.8-4.2-10.5-4.2-8.6,1.5-11.4,4.6-4.2,7.3-4.2,12.6v40.3h-15.6v-41c0-5.5-1.2-9.5-3.5-12.3-2.4-2.8-5.8-4.2-10.5-4.2s-8.6,1.5-11.3,4.6-4.2,7.3-4.2,12.6v40.3h-15.6v-69.8l.2-.3Z" fill="#fff"/>
    <path id="path5" d="M592.1,150.3c-4.2-1.9-7.4-4.7-9.5-8.3v9.2h-14.9V55.6h15.6v34.3c2.1-3.4,5.2-6.1,9.2-7.9,4-1.8,8.1-2.7,12.3-2.7,6.7,0,12.6,1.6,17.6,4.7s8.8,7.5,11.4,12.9c2.7,5.6,3.8,12,3.8,19.2s-1.4,13.6-4,19.2c-2.7,5.6-6.4,9.9-11.4,13-4.9,3.1-10.7,4.7-17.2,4.7s-8.9-1-12.9-3h-.1ZM587.9,132.7c3.6,4.1,8.2,6.1,14.1,6.1s11-2,14.4-6c3.5-4,5.2-9.5,5.2-16.6s-1.7-12.5-5.2-16.5c-3.5-3.8-8.2-5.9-14.4-5.9s-10.5,2-14.1,6-5.5,9.5-5.5,16.4,1.8,12.4,5.5,16.5h0Z" fill="#fff"/>
    <path id="path6" d="M649.3,81.3h14.9v10.7c3.6-8.1,9.8-12.2,18.6-12.2s3.5.2,4.8.7v15.6c-1.6-.4-3.5-.5-5.6-.5-5.6,0-9.8,1.9-12.8,5.7-3,3.8-4.4,9.2-4.4,16v33.9h-15.6v-69.8h.1Z" fill="#fff"/>
    <path id="path7" d="M697.5,69.4c-1.8-1.8-2.7-4-2.7-6.5s.9-4.5,2.7-6.4c1.8-1.8,4-2.7,6.5-2.7s4.7.9,6.4,2.7,2.7,3.8,2.7,6.4-.9,4.7-2.7,6.5-3.8,2.7-6.4,2.7-4.7-.9-6.5-2.7ZM696.2,81.3h15.6v69.8h-15.6v-69.8Z" fill="#fff"/>
    <path id="path8" d="M730.6,147.5c-4.5-3.8-6.7-8.9-6.7-15.5s1.9-10.8,5.8-14.3,8.9-5.9,15.3-7.1l16.4-3.1c2.9-.5,5-1.3,6.3-2.2s2-2.5,2-4.5-1.1-4.8-3.4-6.4c-2.2-1.5-5.6-2.4-9.8-2.4s-7.2.7-9.8,2.4-4.2,3.8-4.7,7.1h-16c.4-6.7,3.6-12,9.3-16,5.8-4,12.8-6.1,21.4-6.1s16.7,2,21.5,6.1,7.3,9.4,7.3,16v32.8c0,3,1.2,4.5,3.6,4.5s3-.4,4.2-1.1v12.1c-2.7,1.9-6,2.9-10.2,2.9s-5.8-.7-7.9-2.2c-2.1-1.5-3.7-3.6-4.6-6.4-5.5,6.2-12.8,9.3-22,9.3s-13.3-1.9-17.7-5.8h0ZM743.1,138.1c2.1,1.5,5.1,2.4,8.7,2.4,5.1,0,9.4-1.4,12.7-4s5-6.1,5-10.5v-9.5c-1.1,1.2-4.2,2.4-9.2,3.4l-10.3,2c-6.7,1.2-10.2,4.4-10.2,9.6s1.1,5.1,3.3,6.6h-.1Z" fill="#fff"/>
    <path id="path9" d="M849.7,147c-7.4-4.2-13-9.9-17.2-17.5-4.2-7.6-6.2-16.3-6.2-26.1s2-18.7,6.2-26.2c4.2-7.6,9.8-13.4,17.2-17.5,7.4-4.2,15.5-6.1,24.7-6.1s15.2,1.6,21.8,4.8,11.9,7.5,15.7,12.9c3.8,5.5,6.1,11.4,6.4,18h-16.8c-1.2-6.2-4.2-11.1-9.2-14.8s-11-5.3-18.3-5.3-11.1,1.4-15.9,4-8.4,6.6-11.1,11.7c-2.7,5.1-4.1,11.3-4.1,18.6s1.4,13.4,4.1,18.5,6.4,9,11.1,11.7c4.8,2.7,10.1,4,15.9,4s13.3-1.8,18.2-5.5,8-8.6,9.2-14.6h16.8c-.4,6.5-2.7,12.5-6.5,18-3.8,5.5-9.1,9.7-15.7,12.9-6.5,3.2-13.9,4.8-21.9,4.8s-17.3-2-24.7-6.1h.3Z" fill="#fff"/>
    <path id="path10" d="M933.8,55.6h60.2v14.9h-43.9v24.2h40.7v14.9h-40.7v27.1h43.9v14.9h-60.2V55.6Z" fill="#fff"/>
  </g>
  <path d="M154,201.1H49c-25.9,0-47-21.1-47-47V49.1c0-25.9,21.1-47,47-47h105c25.9,0,47,21.1,47,47v105c0,25.9-21.1,47-47,47h0Z" fill="url(#linear-gradient)"/>
  <path d="M166.5,130.3s-3.4-2.2-3.4-5.1v-50.6c0-2.1,2-3.4,3-4.4.7-.5,1.4-1.1,2.1-1.8,1.8-1.8,3.1-4.1,3.9-6.4,0-.3.2-.6.3-.9,0,0,0-.1,0-.2,1.3-4.6.9-10-2.3-15.3-1-1.6-2.4-3-4-4-12-7.2-24.5-.7-27.2,9.9h0c-.6,2.3-.7,4.5-.4,6.7s.9,3.2-.9,5.8l-32.3,35.7c-2.1,2.4-5.9,2.4-8.1,0l-31.9-35.3c-1.5-1.3-1.1-6.1-1.1-6.1.2-2.1,0-4.4-.4-6.5h0c-2.8-10.6-15.2-17.3-27.2-10.1-1.6,1-3,2.4-4,4-3.2,5.3-3.7,10.7-2.3,15.3,0,0,0,.1,0,.2,0,.3.2.6.3.9.8,2.3,2.1,4.5,3.9,6.4.7.7,1.3,1.3,2.1,1.8,1,1,3,2.2,3,4.4v50.6c0,3.2-3.4,5.1-3.4,5.1-6.4,5.1-9.1,14.6-3.5,23.9,1,1.6,2.4,3,4,4,13.7,8.1,27.7-1.5,27.7-14.4s-2.6-10.4-6.6-13.7-3.5-2.2-3.5-5.1v-50.6s0-.2,0-.2c0,0,.2.1.3.2l39.5,43.6c4.2,4.2,8.3,4.7,12.4,1.7s3.6-3.5,3.9-3.8l37.4-41.7s.3-.2.4,0v50.6c0,3.1-3.5,5.1-3.5,5.1-6.4,5.1-9.2,14.6-3.5,24,1,1.6,2.4,3,4,4,13.7,8.1,27.7-1.5,27.7-14.4s-2.7-10.3-6.6-13.5h0Z" fill="#fff"/>
  <metadata id="metadata10">
    <ns:sfw>
      <ns:slices/>
      <ns:sliceSourceBounds x="3.2" y="2.7" width="1271.11" height="269.2" bottomLeftOrigin="true"/>
    </ns:sfw>
    <sfw xmlns="http://ns.adobe.com/SaveForWeb/1.0/">
      <slices/>
      <sliceSourceBounds x="2" y="0.82" width="992.02" height="198.97" bottomLeftOrigin="true"/>
    </sfw>
  </metadata>
</svg>
